<svg width="320" height="415" viewBox="0 0 320 415" fill="none" xmlns="http://www.w3.org/2000/svg">
<rect x="-46.5" y="0.5" width="413.286" height="413.286" rx="59.5" stroke="#E8E1E1"/>
<path d="M231.359 165.74C231.359 203.421 200.812 233.967 163.131 233.967C125.45 233.967 94.9034 203.421 94.9034 165.74C94.9034 146.798 98.0569 129.76 108.115 117.458C118.156 105.177 135.168 97.5118 163.131 97.512C191.094 97.5121 208.106 105.178 218.147 117.458C228.205 129.76 231.359 146.798 231.359 165.74Z" stroke="#E8E1E1"/>
<path d="M194.897 111.039C194.897 130.963 180.621 147.007 163.137 147.007C145.652 147.007 131.377 130.963 131.377 111.039C131.377 91.1152 145.652 75.0713 163.137 75.0713C180.621 75.0713 194.897 91.1152 194.897 111.039Z" stroke="#E8E1E1"/>
<path d="M162.598 292.062C129.966 273.221 118.785 231.494 137.625 198.861C156.466 166.228 198.193 155.048 230.826 173.888C247.229 183.359 260.408 194.609 266.033 209.471C271.648 224.307 269.781 242.872 255.799 267.089C241.817 291.305 226.673 302.205 211.017 304.76C195.334 307.32 179.002 301.532 162.598 292.062Z" stroke="#E8E1E1"/>
<path d="M228.203 287.83C210.949 277.868 204.192 257.483 212.934 242.341C221.677 227.199 242.709 222.858 259.963 232.82C277.218 242.782 283.975 263.167 275.232 278.309C266.49 293.451 245.458 297.792 228.203 287.83Z" stroke="#E8E1E1"/>
<path d="M89.4631 175.29C122.096 156.45 163.823 167.631 182.664 200.263C201.504 232.896 190.323 274.623 157.691 293.464C141.287 302.934 124.955 308.722 109.272 306.163C93.6157 303.607 78.4715 292.708 64.4901 268.491C50.5087 244.274 48.6413 225.709 54.2563 210.873C59.881 196.011 73.0595 184.761 89.4631 175.29Z" stroke="#E8E1E1"/>
<path d="M60.3208 234.223C77.5753 224.261 98.6073 228.602 107.35 243.744C116.092 258.886 109.335 279.271 92.0807 289.232C74.8262 299.194 53.7941 294.854 45.0518 279.711C36.3095 264.569 43.0663 244.185 60.3208 234.223Z" stroke="#E8E1E1"/>
<circle cx="162.439" cy="208.52" r="53.5002" fill="#F7F4F0" stroke="#E8E1E1"/>
</svg>
